<svg width="16" height="16" viewBox="0 0 16 16" fill="none"  xmlns="http://www.w3.org/2000/svg">
<path d="M11.1667 2.37301V1.33301C11.1667 1.05967 10.94 0.833008 10.6667 0.833008C10.3933 0.833008 10.1667 1.05967 10.1667 1.33301V2.33301H5.83332V1.33301C5.83332 1.05967 5.60666 0.833008 5.33332 0.833008C5.05999 0.833008 4.83332 1.05967 4.83332 1.33301V2.37301C3.03332 2.53967 2.15999 3.61301 2.02666 5.20634C2.01332 5.39967 2.17332 5.55967 2.35999 5.55967H13.64C13.8333 5.55967 13.9933 5.39301 13.9733 5.20634C13.84 3.61301 12.9667 2.53967 11.1667 2.37301Z" fill="#6E97AE"/>
<path d="M13.3333 6.55957H2.66667C2.3 6.55957 2 6.85957 2 7.22624V11.3329C2 13.3329 3 14.6662 5.33333 14.6662H10.6667C13 14.6662 14 13.3329 14 11.3329V7.22624C14 6.85957 13.7 6.55957 13.3333 6.55957ZM6.14 12.1396C6.10667 12.1662 6.07333 12.1996 6.04 12.2196C6 12.2462 5.96 12.2662 5.92 12.2796C5.88 12.2996 5.84 12.3129 5.8 12.3196C5.75333 12.3262 5.71333 12.3329 5.66667 12.3329C5.58 12.3329 5.49333 12.3129 5.41333 12.2796C5.32667 12.2462 5.26 12.1996 5.19333 12.1396C5.07333 12.0129 5 11.8396 5 11.6662C5 11.4929 5.07333 11.3196 5.19333 11.1929C5.26 11.1329 5.32667 11.0862 5.41333 11.0529C5.53333 10.9996 5.66667 10.9862 5.8 11.0129C5.84 11.0196 5.88 11.0329 5.92 11.0529C5.96 11.0662 6 11.0862 6.04 11.1129C6.07333 11.1396 6.10667 11.1662 6.14 11.1929C6.26 11.3196 6.33333 11.4929 6.33333 11.6662C6.33333 11.8396 6.26 12.0129 6.14 12.1396ZM6.14 9.80624C6.01333 9.92624 5.84 9.99957 5.66667 9.99957C5.49333 9.99957 5.32 9.92624 5.19333 9.80624C5.07333 9.67957 5 9.50624 5 9.3329C5 9.15957 5.07333 8.98624 5.19333 8.85957C5.38 8.6729 5.67333 8.6129 5.92 8.71957C6.00667 8.7529 6.08 8.79957 6.14 8.85957C6.26 8.98624 6.33333 9.15957 6.33333 9.3329C6.33333 9.50624 6.26 9.67957 6.14 9.80624ZM8.47333 12.1396C8.34667 12.2596 8.17333 12.3329 8 12.3329C7.82667 12.3329 7.65333 12.2596 7.52667 12.1396C7.40667 12.0129 7.33333 11.8396 7.33333 11.6662C7.33333 11.4929 7.40667 11.3196 7.52667 11.1929C7.77333 10.9462 8.22667 10.9462 8.47333 11.1929C8.59333 11.3196 8.66667 11.4929 8.66667 11.6662C8.66667 11.8396 8.59333 12.0129 8.47333 12.1396ZM8.47333 9.80624C8.44 9.8329 8.40667 9.85957 8.37333 9.88624C8.33333 9.9129 8.29333 9.9329 8.25333 9.94624C8.21333 9.96624 8.17333 9.97957 8.13333 9.98624C8.08667 9.9929 8.04667 9.99957 8 9.99957C7.82667 9.99957 7.65333 9.92624 7.52667 9.80624C7.40667 9.67957 7.33333 9.50624 7.33333 9.3329C7.33333 9.15957 7.40667 8.98624 7.52667 8.85957C7.58667 8.79957 7.66 8.7529 7.74667 8.71957C7.99333 8.6129 8.28667 8.6729 8.47333 8.85957C8.59333 8.98624 8.66667 9.15957 8.66667 9.3329C8.66667 9.50624 8.59333 9.67957 8.47333 9.80624ZM10.8067 12.1396C10.68 12.2596 10.5067 12.3329 10.3333 12.3329C10.16 12.3329 9.98667 12.2596 9.86 12.1396C9.74 12.0129 9.66667 11.8396 9.66667 11.6662C9.66667 11.4929 9.74 11.3196 9.86 11.1929C10.1067 10.9462 10.56 10.9462 10.8067 11.1929C10.9267 11.3196 11 11.4929 11 11.6662C11 11.8396 10.9267 12.0129 10.8067 12.1396ZM10.8067 9.80624C10.7733 9.8329 10.74 9.85957 10.7067 9.88624C10.6667 9.9129 10.6267 9.9329 10.5867 9.94624C10.5467 9.96624 10.5067 9.97957 10.4667 9.98624C10.42 9.9929 10.3733 9.99957 10.3333 9.99957C10.16 9.99957 9.98667 9.92624 9.86 9.80624C9.74 9.67957 9.66667 9.50624 9.66667 9.3329C9.66667 9.15957 9.74 8.98624 9.86 8.85957C9.92667 8.79957 9.99333 8.7529 10.08 8.71957C10.2 8.66624 10.3333 8.6529 10.4667 8.67957C10.5067 8.68624 10.5467 8.69957 10.5867 8.71957C10.6267 8.7329 10.6667 8.7529 10.7067 8.77957C10.74 8.80624 10.7733 8.8329 10.8067 8.85957C10.9267 8.98624 11 9.15957 11 9.3329C11 9.50624 10.9267 9.67957 10.8067 9.80624Z" fill="#6E97AE"/>
</svg>
